<svg width="192" height="192" viewBox="0 0 192 192" fill="none" xmlns="http://www.w3.org/2000/svg">
<g clip-path="url(#clip0)">
<rect x="0.70781" width="67.7556" height="67.7556" rx="4.5" transform="matrix(0.70781 -0.706403 0.70781 0.706403 15.3045 108.931)" stroke="black"/>
<rect x="0.70781" width="67.7556" height="67.7556" rx="4.5" transform="matrix(0.70781 -0.706403 0.70781 0.706403 23.6975 105.58)" stroke="black"/>
<path d="M63.5856 102.291L69.0397 100.476L71.7667 99.5691L81.766 109.548L67.2216 114.085H66.3126C65.1006 114.085 62.3129 113.177 60.8585 109.548C59.9495 105.92 62.0705 103.198 63.5856 102.291Z" stroke="black"/>
<rect x="0.70781" width="73.4658" height="73.4658" rx="4.5" transform="matrix(0.70781 -0.706403 0.70781 0.706403 64.7014 92.7957)" stroke="black"/>
<rect x="0.70781" width="73.4658" height="73.4658" rx="4.5" transform="matrix(0.70781 -0.706403 0.70781 0.706403 73.7918 89.1668)" stroke="black"/>
<path d="M129.763 89.1507C129.763 92.3809 127.139 95.0012 123.9 95.0012C120.661 95.0012 118.037 92.3809 118.037 89.1507C118.037 85.9205 120.661 83.3002 123.9 83.3002C127.139 83.3002 129.763 85.9205 129.763 89.1507Z" stroke="black"/>
<path d="M131.262 87.7753C131.262 91.0055 128.638 93.6258 125.399 93.6258C122.16 93.6258 119.536 91.0055 119.536 87.7753C119.536 84.5451 122.16 81.9248 125.399 81.9248C128.638 81.9248 131.262 84.5451 131.262 87.7753Z" stroke="black"/>
</g>
<defs>
<clipPath id="clip0">
<rect width="192" height="192" rx="35" fill="white"/>
</clipPath>
</defs>
</svg>
